<svg width="24" height="24" viewBox="0 0 24 24" fill="none" xmlns="http://www.w3.org/2000/svg">
    <path d="M18 22C17.1667 22 16.4583 21.7083 15.875 21.125C15.2917 20.5417 15 19.8333 15 19C15 18.8667 15.0083 18.7417 15.025 18.625C15.0417 18.5083 15.0667 18.4 15.1 18.3L8.1 14.3C7.8 14.5333 7.45833 14.7167 7.075 14.85C6.69167 14.9833 6.33333 15.05 6 15.05C5.16667 15.05 4.45833 14.7583 3.875 14.175C3.29167 13.5917 3 12.8833 3 12.05C3 11.2167 3.29167 10.5083 3.875 9.925C4.45833 9.34167 5.16667 9.05 6 9.05C6.33333 9.05 6.69167 9.11667 7.075 9.25C7.45833 9.38333 7.8 9.56667 8.1 9.8L15.1 5.8C15.0667 5.7 15.0417 5.59167 15.025 5.475C15.0083 5.35833 15 5.23333 15 5.1C15 4.26667 15.2917 3.55833 15.875 2.975C16.4583 2.39167 17.1667 2.1 18 2.1C18.8333 2.1 19.5417 2.39167 20.125 2.975C20.7083 3.55833 21 4.26667 21 5.1C21 5.93333 20.7083 6.64167 20.125 7.225C19.5417 7.80833 18.8333 8.1 18 8.1C17.6667 8.1 17.3083 8.03333 16.925 7.9C16.5417 7.76667 16.2 7.58333 15.9 7.35L8.9 11.35C8.93333 11.45 8.95833 11.5583 8.975 11.675C8.99167 11.7917 9 11.9167 9 12.05C9 12.1833 8.99167 12.3083 8.975 12.425C8.95833 12.5417 8.93333 12.65 8.9 12.75L15.9 16.75C16.2 16.5167 16.5417 16.3333 16.925 16.2C17.3083 16.0667 17.6667 16 18 16C18.8333 16 19.5417 16.2917 20.125 16.875C20.7083 17.4583 21 18.1667 21 19C21 19.8333 20.7083 20.5417 20.125 21.125C19.5417 21.7083 18.8333 22 18 22Z" fill="currentColor"/>
</svg>